<svg width="23" height="22" viewBox="0 0 23 22" fill="none" xmlns="http://www.w3.org/2000/svg">
    <path d="M11.6268 0C7.10504 0 5.78261 0.00473329 5.52555 0.0263712C4.59761 0.104639 4.02019 0.252893 3.39112 0.570699C2.90632 0.814971 2.52399 1.09812 2.14665 1.49504C1.45944 2.2189 1.04295 3.10943 0.892179 4.168C0.818877 4.6819 0.797552 4.78671 0.793221 7.41165C0.791555 8.28663 0.793221 9.43818 0.793221 10.9827C0.793221 15.5673 0.798219 16.9078 0.819876 17.1681C0.894844 18.0844 1.03645 18.6608 1.33632 19.2914C1.90941 20.4983 3.00395 21.4044 4.2934 21.7425C4.73988 21.8592 5.23301 21.9234 5.86607 21.9538C6.13429 21.9657 8.86813 21.9741 11.6036 21.9741C14.3391 21.9741 17.0746 21.9707 17.3362 21.9572C18.0692 21.9222 18.4949 21.8642 18.9655 21.7408C19.6049 21.5745 20.2007 21.2685 20.7115 20.8442C21.2222 20.42 21.6356 19.8877 21.9226 19.2846C22.2166 18.6693 22.3657 18.0708 22.4332 17.2025C22.4479 17.0131 22.454 13.9945 22.454 10.9799C22.454 7.96477 22.4474 4.95169 22.4327 4.76236C22.3644 3.87994 22.2153 3.28659 21.9118 2.65943C21.6627 2.14604 21.3862 1.76264 20.9847 1.37062C20.2683 0.676184 19.392 0.253569 18.3476 0.100751C17.8417 0.0265402 17.7409 0.00456424 15.152 0H11.6268Z" fill="url(#paint0_radial_5322_4596)"/>
    <path d="M11.6268 0C7.10504 0 5.78261 0.00473329 5.52555 0.0263712C4.59761 0.104639 4.02019 0.252893 3.39112 0.570699C2.90632 0.814971 2.52399 1.09812 2.14665 1.49504C1.45944 2.2189 1.04295 3.10943 0.892179 4.168C0.818877 4.6819 0.797552 4.78671 0.793221 7.41165C0.791555 8.28663 0.793221 9.43818 0.793221 10.9827C0.793221 15.5673 0.798219 16.9078 0.819876 17.1681C0.894844 18.0844 1.03645 18.6608 1.33632 19.2914C1.90941 20.4983 3.00395 21.4044 4.2934 21.7425C4.73988 21.8592 5.23301 21.9234 5.86607 21.9538C6.13429 21.9657 8.86813 21.9741 11.6036 21.9741C14.3391 21.9741 17.0746 21.9707 17.3362 21.9572C18.0692 21.9222 18.4949 21.8642 18.9655 21.7408C19.6049 21.5745 20.2007 21.2685 20.7115 20.8442C21.2222 20.42 21.6356 19.8877 21.9226 19.2846C22.2166 18.6693 22.3657 18.0708 22.4332 17.2025C22.4479 17.0131 22.454 13.9945 22.454 10.9799C22.454 7.96477 22.4474 4.95169 22.4327 4.76236C22.3644 3.87994 22.2153 3.28659 21.9118 2.65943C21.6627 2.14604 21.3862 1.76264 20.9847 1.37062C20.2683 0.676184 19.392 0.253569 18.3476 0.100751C17.8417 0.0265402 17.7409 0.00456424 15.152 0H11.6268Z" fill="url(#paint1_radial_5322_4596)"/>
    <path d="M11.6219 2.87379C9.45012 2.87379 9.17757 2.88343 8.3246 2.92282C7.47329 2.96237 6.8922 3.09913 6.38375 3.29979C5.85781 3.50704 5.41167 3.78428 4.96719 4.23546C4.52238 4.68647 4.24916 5.13918 4.04424 5.67269C3.846 6.18879 3.71105 6.77859 3.67274 7.64207C3.63475 8.50759 3.62476 8.78432 3.62476 10.988C3.62476 13.1917 3.63442 13.4674 3.67307 14.3329C3.71222 15.1967 3.847 15.7864 4.04458 16.3023C4.24899 16.836 4.52221 17.2887 4.96685 17.7397C5.41117 18.1911 5.85731 18.469 6.38292 18.6762C6.8917 18.8769 7.47296 19.0136 8.3241 19.0532C9.17707 19.0926 9.44945 19.1022 11.621 19.1022C13.7929 19.1022 14.0647 19.0926 14.9176 19.0532C15.7689 19.0136 16.3507 18.8769 16.8595 18.6762C17.3853 18.469 17.8307 18.1911 18.275 17.7397C18.7199 17.2887 18.9931 16.836 19.198 16.3025C19.3946 15.7864 19.5295 15.1966 19.5695 14.3331C19.6078 13.4676 19.6178 13.1917 19.6178 10.988C19.6178 8.78432 19.6078 8.50776 19.5695 7.64224C19.5295 6.77842 19.3946 6.18879 19.198 5.67286C18.9931 5.13918 18.7199 4.68647 18.275 4.23546C17.8302 3.78411 17.3854 3.50687 16.859 3.29979C16.3492 3.09913 15.7678 2.96237 14.9165 2.92282C14.0635 2.88343 13.7919 2.87379 11.6195 2.87379H11.6219ZM10.9045 4.33604C11.1174 4.3357 11.355 4.33604 11.6219 4.33604C13.757 4.33604 14.01 4.34382 14.8532 4.3827C15.6328 4.41887 16.056 4.55107 16.3379 4.66213C16.711 4.8092 16.9771 4.98501 17.2568 5.26901C17.5367 5.553 17.71 5.82348 17.8552 6.20214C17.9647 6.48783 18.0951 6.91721 18.1306 7.70834C18.1689 8.56371 18.1773 8.82066 18.1773 10.9861C18.1773 13.1516 18.1689 13.4086 18.1306 14.2639C18.095 15.0551 17.9647 15.4845 17.8552 15.7701C17.7103 16.1488 17.5367 16.4184 17.2568 16.7023C16.9769 16.9863 16.7112 17.1621 16.3379 17.3091C16.0563 17.4207 15.6328 17.5526 14.8532 17.5887C14.0102 17.6276 13.757 17.6361 11.6219 17.6361C9.4866 17.6361 9.23355 17.6276 8.39057 17.5887C7.6109 17.5522 7.18775 17.42 6.9057 17.309C6.53252 17.1619 6.26597 16.9861 5.98609 16.7021C5.70621 16.4181 5.53295 16.1483 5.38768 15.7695C5.27822 15.4838 5.14778 15.0544 5.11229 14.2633C5.07398 13.4079 5.06631 13.1509 5.06631 10.9841C5.06631 8.81728 5.07398 8.56169 5.11229 7.70631C5.14794 6.91518 5.27822 6.4858 5.38768 6.19977C5.53261 5.82111 5.70621 5.55064 5.98609 5.26664C6.26597 4.98264 6.53252 4.80684 6.9057 4.65943C7.18758 4.54786 7.6109 4.416 8.39057 4.37966C9.12826 4.34585 9.41414 4.3357 10.9045 4.33401V4.33604ZM15.8904 5.68334C15.7006 5.68334 15.515 5.74045 15.3572 5.84746C15.1994 5.95447 15.0764 6.10656 15.0038 6.2845C14.9312 6.46244 14.9122 6.65824 14.9493 6.84713C14.9863 7.03602 15.0777 7.20952 15.212 7.34568C15.3462 7.48184 15.5172 7.57455 15.7034 7.61208C15.8896 7.64961 16.0825 7.63028 16.2578 7.55653C16.4332 7.48278 16.583 7.35793 16.6884 7.19776C16.7938 7.03759 16.8501 6.8493 16.85 6.65671C16.85 6.11914 16.4202 5.683 15.8904 5.683V5.68334ZM11.6219 6.82102C9.35399 6.82102 7.51527 8.68678 7.51527 10.988C7.51527 13.2892 9.35399 15.1541 11.6219 15.1541C13.8897 15.1541 15.728 13.2892 15.728 10.988C15.728 8.68678 13.8897 6.82102 11.6219 6.82102ZM11.6219 8.28327C13.0939 8.28327 14.2874 9.49414 14.2874 10.988C14.2874 12.4817 13.0939 13.6927 11.6219 13.6927C10.1497 13.6927 8.95633 12.4817 8.95633 10.988C8.95633 9.49414 10.1497 8.28327 11.6219 8.28327Z" fill="white"/>
    <defs>
        <radialGradient id="paint0_radial_5322_4596" cx="0" cy="0" r="1" gradientUnits="userSpaceOnUse" gradientTransform="translate(6.54636 23.6666) rotate(-90) scale(21.778 19.9671)">
            <stop stop-color="#FFDD55"/>
            <stop offset="0.1" stop-color="#FFDD55"/>
            <stop offset="0.5" stop-color="#FF543E"/>
            <stop offset="1" stop-color="#C837AB"/>
        </radialGradient>
        <radialGradient id="paint1_radial_5322_4596" cx="0" cy="0" r="1" gradientUnits="userSpaceOnUse" gradientTransform="translate(-2.83594 1.58298) rotate(78.8376) scale(9.72955 39.5782)">
            <stop stop-color="#3771C8"/>
            <stop offset="0.128" stop-color="#3771C8"/>
            <stop offset="1" stop-color="#6600FF" stop-opacity="0"/>
        </radialGradient>
    </defs>
</svg>
