<svg width="23" height="23" viewBox="0 0 23 23" fill="none" xmlns="http://www.w3.org/2000/svg">
    <g clip-path="url(#clip0_5322_4574)">
        <path d="M22.6415 4.30047C21.7995 4.6698 20.9024 4.91462 19.967 5.03348C20.9292 4.45896 21.6637 3.55613 22.009 2.46792C21.1118 3.00282 20.1212 3.38065 19.0656 3.5915C18.2137 2.68443 16.9995 2.12263 15.675 2.12263C13.1052 2.12263 11.0363 4.20848 11.0363 6.76556C11.0363 7.13348 11.0675 7.48726 11.1439 7.82405C7.28491 7.63584 3.87028 5.78631 1.57642 2.96886C1.17594 3.66367 0.941038 4.45896 0.941038 5.31509C0.941038 6.92264 1.76887 8.34763 3.00283 9.17264C2.25708 9.15848 1.52547 8.94197 0.90566 8.60094C0.90566 8.61509 0.90566 8.63348 0.90566 8.65188C0.90566 10.9075 2.51462 12.7811 4.62453 13.2127C4.2467 13.316 3.83491 13.3656 3.40755 13.3656C3.11038 13.3656 2.81038 13.3486 2.52877 13.2863C3.13019 15.1245 4.83679 16.4759 6.86604 16.5198C5.28679 17.7552 3.2816 18.4995 1.11085 18.4995C0.730189 18.4995 0.365094 18.4825 0 18.4358C2.05613 19.7618 4.49292 20.5189 7.12076 20.5189C15.6623 20.5189 20.3321 13.4434 20.3321 7.31037C20.3321 7.10518 20.325 6.90707 20.3151 6.71037C21.2363 6.0566 22.0104 5.24009 22.6415 4.30047Z" fill="#03A9F4"/>
    </g>
    <defs>
        <clipPath id="clip0_5322_4574">
            <rect width="22.6415" height="22.6415" fill="white"/>
        </clipPath>
    </defs>
</svg>
