<svg width="133" height="151" viewBox="0 0 133 151" fill="none" xmlns="http://www.w3.org/2000/svg">
<path d="M60.2127 2.09089C63.8329 -0.0302974 68.2921 -0.0302958 71.9123 2.09089L125.77 33.6476C129.391 35.7693 131.625 39.693 131.625 43.9433V107.057C131.625 111.307 129.391 115.231 125.77 117.352L71.9123 148.909C68.2921 151.03 63.8329 151.03 60.2127 148.909L6.35536 117.352C2.73429 115.231 0.5 111.307 0.5 107.057V43.9433C0.5 39.693 2.73429 35.7693 6.35536 33.6476L60.2127 2.09089Z" fill="#161621" stroke="url(#paint0_linear_5026_4579)"/>
<mask id="mask0_5026_4579" style="mask-type:alpha" maskUnits="userSpaceOnUse" x="0" y="0" width="133" height="151">
<path d="M60.2127 2.09089C63.8329 -0.0302974 68.2921 -0.0302958 71.9123 2.09089L125.77 33.6476C129.391 35.7693 131.625 39.693 131.625 43.9433V107.057C131.625 111.307 129.391 115.231 125.77 117.352L71.9123 148.909C68.2921 151.03 63.8329 151.03 60.2127 148.909L6.35536 117.352C2.73429 115.231 0.5 111.307 0.5 107.057V43.9433C0.5 39.693 2.73429 35.7693 6.35536 33.6476L60.2127 2.09089Z" fill="#161621" stroke="url(#paint1_linear_5026_4579)"/>
</mask>
<g mask="url(#mask0_5026_4579)">
<g opacity="0.04">
<path d="M70.3605 20.3048C70.4211 20.3863 70.4514 20.4677 70.512 20.5491C71.209 21.7435 71.8151 22.8021 72.2696 23.6435C72.7242 24.485 73.0575 25.1093 73.2091 25.4622C93.9066 66.0425 30.4807 126.927 30.2383 127.117C29.4807 127.714 29.0867 128.528 29.0867 129.369C29.0867 130.075 29.3595 130.781 29.9049 131.351C29.9655 131.405 29.9958 131.46 30.0564 131.514L43.5416 143.593C44.8447 144.76 46.9357 144.869 48.3902 143.783C62.1179 132.627 73.6939 119.543 82.6941 105.048C90.5125 92.4265 94.9672 80.9717 96.7551 73.1814V73.1542C98.7855 66.5854 98.4521 60.3423 104.998 71.4984C105.846 73.0185 106.664 74.5386 107.422 76.0586L107.452 76.0858L107.543 76.2758C108.483 78.1487 109.361 80.0488 110.18 81.976C110.301 82.2475 110.392 82.4918 110.513 82.7361C110.786 83.3604 111.028 83.9847 111.271 84.609C111.271 84.609 111.665 85.5862 112.028 86.6177C112.392 87.6491 113.24 90.2007 114.271 93.7022C114.483 94.408 115.301 94.8423 116.089 94.6523C116.483 94.5437 116.847 94.2994 117.028 93.9737C119.847 89.0878 123.271 83.4418 127.271 76.4115C127.665 75.7601 127.726 75 127.423 74.2943C125.907 70.8198 123.604 66.2325 118.877 58.6865C112.846 49.0503 105.907 39.9028 99.3612 30.5381C94.0884 22.9921 88.9973 15.3646 84.1487 7.57428C83.2093 6.05422 82.2699 4.50701 81.3305 2.9598C80.9365 2.30834 80.0274 2.06404 79.3304 2.41692C79.0577 2.52549 78.8456 2.74265 78.7243 2.98694L70.2393 17.7261C69.8453 18.5676 69.8756 19.5176 70.3605 20.3048Z" fill="url(#paint2_linear_5026_4579)"/>
<path d="M135.332 101.22C134.938 98.2881 134.362 95.3837 133.665 92.4793C133.604 92.1807 132.544 88.3534 131.726 85.3947C131.544 84.6618 130.726 84.2275 129.938 84.4175C129.513 84.5261 129.18 84.7704 128.968 85.0961L117.877 104.368C117.665 104.721 117.574 105.128 117.543 105.508C117.059 120.682 112.028 132.598 108.816 137.728C102.27 148.152 92.8459 155.833 80.6032 160.448C63.6633 166.854 46.572 166.745 29.8746 159.796C28.2685 159.118 26.723 158.412 25.2381 157.652C17.6622 153.852 11.1468 148.505 6.20732 142.099C2.44965 137.213 -0.459513 131.675 -2.58078 125.541C-5.9445 115.769 -5.39903 105.97 -2.97473 96.0894C0.75264 80.8888 8.63163 67.4253 18.0258 54.5048C30.3291 37.6212 42.1779 20.4933 52.36 2.52398C53.0267 1.35679 53.6934 0.162455 54.3298 -1.03188L54.3904 -1.1676C54.5419 -1.43904 54.7237 -1.71049 54.9055 -1.98192C55.6025 -2.87768 56.2995 -2.90482 56.9662 -2.00907C57.4207 -1.33047 57.845 -0.624723 58.2389 0.108164C58.5723 0.705336 61.1784 5.56412 64.4512 11.6987C64.8149 12.3773 65.6937 12.6487 66.421 12.3501C66.724 12.2415 66.9664 12.0244 67.118 11.753L76.0273 -3.74629C76.4515 -4.50632 76.4515 -5.40207 76.0273 -6.18925C74.3606 -9.14795 72.7242 -12.1609 71.1181 -15.1739C69.3907 -18.5126 67.7846 -22.0414 65.9058 -25.4072C63.9361 -28.9359 60.6936 -30.9446 56.1783 -30.9989C51.6933 -31.0532 48.4508 -29.1259 46.2992 -25.6787C45.9053 -25.0272 45.5417 -24.3215 45.178 -23.6429C42.7537 -19.1641 40.4203 -14.6582 38.0263 -10.1794C36.2384 -6.8407 34.4202 -3.52913 32.4807 -0.298996C31.9656 0.542471 31.4807 1.38393 30.9352 2.2254C23.5714 14.0873 15.6621 25.6778 7.72251 37.2412C0.75264 47.4473 -6.85361 57.3006 -12.4295 68.2668C-17.8842 78.9616 -21.7934 90.0635 -23.3692 101.708C-24.8238 112.539 -23.8237 123.233 -19.7327 133.602C-17.6115 139.031 -14.8235 144.243 -11.4295 149.129C-8.27789 153.635 -4.55053 157.788 -0.277691 161.479C1.2678 162.809 2.8436 164.085 4.4497 165.307C19.0561 176.273 36.3899 181.946 58.5723 181.946C63.8451 182.272 71.6938 181.104 79.3607 178.987C97.1793 174.101 111.483 164.791 121.998 150.975C130.241 140.144 134.998 128.174 135.877 115.063C136.15 110.449 135.968 105.834 135.332 101.22Z" fill="url(#paint3_linear_5026_4579)"/>
</g>
</g>
<path d="M71.1448 55.9355C71.1662 55.9644 71.1769 55.9932 71.1984 56.0221C71.4451 56.4455 71.6596 56.8207 71.8204 57.119C71.9813 57.4172 72.0993 57.6385 72.1529 57.7636C79.4779 72.1477 57.0311 93.7287 56.9453 93.796C56.6771 94.0077 56.5377 94.2963 56.5377 94.5946C56.5377 94.8447 56.6342 95.0949 56.8273 95.297C56.8487 95.3162 56.8595 95.3354 56.8809 95.3547L61.6534 99.6362C62.1146 100.05 62.8546 100.088 63.3694 99.7036C68.2276 95.7492 72.3245 91.1116 75.5097 85.9738C78.2767 81.4998 79.8532 77.4395 80.486 74.6781V74.6685C81.2045 72.3401 81.0866 70.1272 83.4031 74.0816C83.7034 74.6204 83.993 75.1592 84.2611 75.698L84.2718 75.7076L84.304 75.775C84.6364 76.4389 84.9475 77.1124 85.237 77.7955C85.2799 77.8917 85.3121 77.9783 85.355 78.0649C85.4515 78.2862 85.5373 78.5075 85.6231 78.7288C85.6231 78.7288 85.7625 79.0752 85.8912 79.4408C86.0199 79.8064 86.3202 80.7108 86.6849 81.952C86.7599 82.2021 87.0495 82.3561 87.3283 82.2887C87.4678 82.2502 87.5965 82.1636 87.6608 82.0482C88.6582 80.3163 89.8701 78.3151 91.2858 75.8231C91.4252 75.5922 91.4466 75.3228 91.3394 75.0726C90.8031 73.8411 89.9881 72.215 88.315 69.5403C86.1808 66.1247 83.7248 62.8822 81.4083 59.5628C79.5422 56.888 77.7405 54.1844 76.0245 51.423C75.692 50.8842 75.3596 50.3358 75.0271 49.7874C74.8877 49.5565 74.5659 49.4699 74.3193 49.595C74.2228 49.6335 74.1477 49.7104 74.1048 49.797L71.1019 55.0215C70.9624 55.3197 70.9732 55.6565 71.1448 55.9355Z" fill="url(#paint4_linear_5026_4579)"/>
<path d="M94.1385 84.6166C93.9991 83.5775 93.7953 82.548 93.5487 81.5185C93.5272 81.4126 93.1518 80.056 92.8623 79.0073C92.7979 78.7475 92.5084 78.5936 92.2295 78.6609C92.0794 78.6994 91.9614 78.786 91.8863 78.9014L87.9611 85.7327C87.886 85.8578 87.8538 86.0021 87.8431 86.1368C87.6715 91.5152 85.8912 95.739 84.7544 97.5575C82.4379 101.252 79.1025 103.975 74.7697 105.611C68.7746 107.881 62.7259 107.843 56.8166 105.38C56.2481 105.139 55.7012 104.889 55.1757 104.62C52.4945 103.273 50.1887 101.377 48.4406 99.1065C47.1107 97.3747 46.0811 95.4119 45.3304 93.2374C44.14 89.7737 44.333 86.3004 45.191 82.7981C46.5101 77.4101 49.2985 72.6379 52.6232 68.058C56.9774 62.0735 61.1708 56.0023 64.7743 49.6329C65.0102 49.2192 65.2462 48.7958 65.4714 48.3725L65.4928 48.3244C65.5465 48.2282 65.6108 48.132 65.6752 48.0358C65.9218 47.7182 66.1685 47.7086 66.4044 48.0261C66.5653 48.2667 66.7155 48.5168 66.8549 48.7766C66.9728 48.9883 67.8952 50.7105 69.0534 52.885C69.1821 53.1255 69.4932 53.2217 69.7505 53.1159C69.8578 53.0774 69.9436 53.0004 69.9972 52.9042L73.1503 47.4104C73.3004 47.141 73.3004 46.8234 73.1503 46.5444C72.5604 45.4957 71.9813 44.4277 71.4129 43.3597C70.8016 42.1763 70.2332 40.9255 69.5682 39.7324C68.8711 38.4816 67.7236 37.7696 66.1256 37.7504C64.5383 37.7312 63.3908 38.4143 62.6293 39.6362C62.4899 39.8671 62.3612 40.1173 62.2325 40.3578C61.3746 41.9454 60.5488 43.5425 59.7015 45.1301C59.0687 46.3135 58.4253 47.4873 57.7389 48.6323C57.5566 48.9305 57.385 49.2288 57.1919 49.5271C54.5858 53.7317 51.7867 57.84 48.9768 61.9388C46.5101 65.5565 43.8182 69.049 41.8449 72.9361C39.9144 76.727 38.5309 80.6622 37.9732 84.7898C37.4585 88.6287 37.8124 92.4196 39.2602 96.095C40.0109 98.0193 40.9976 99.8666 42.1988 101.598C43.3142 103.196 44.6333 104.668 46.1455 105.976C46.6924 106.448 47.2501 106.9 47.8185 107.333C52.9878 111.22 59.1224 113.231 66.9728 113.231C68.8389 113.346 71.6166 112.933 74.33 112.182C80.6361 110.45 85.6982 107.15 89.4197 102.253C92.3368 98.4138 94.0205 94.1707 94.3316 89.5235C94.4281 87.8879 94.3637 86.2522 94.1385 84.6166Z" fill="url(#paint5_linear_5026_4579)"/>
<defs>
<linearGradient id="paint0_linear_5026_4579" x1="-7.85358" y1="75.4999" x2="149.093" y2="78.7375" gradientUnits="userSpaceOnUse">
<stop stop-color="#4BF2A2"/>
<stop offset="0.522948" stop-color="#A89FE7"/>
<stop offset="0.669499" stop-color="#E1C4F4"/>
<stop offset="1" stop-color="#DD40CD"/>
</linearGradient>
<linearGradient id="paint1_linear_5026_4579" x1="-7.85358" y1="75.4999" x2="149.093" y2="78.7375" gradientUnits="userSpaceOnUse">
<stop stop-color="#4BF2A2"/>
<stop offset="0.522948" stop-color="#A89FE7"/>
<stop offset="0.669499" stop-color="#E1C4F4"/>
<stop offset="1" stop-color="#DD40CD"/>
</linearGradient>
<linearGradient id="paint2_linear_5026_4579" x1="-33.5105" y1="75.4999" x2="156.569" y2="78.866" gradientUnits="userSpaceOnUse">
<stop stop-color="#4BF2A2"/>
<stop offset="0.522948" stop-color="#A89FE7"/>
<stop offset="0.669499" stop-color="#E1C4F4"/>
<stop offset="1" stop-color="#DD40CD"/>
</linearGradient>
<linearGradient id="paint3_linear_5026_4579" x1="-33.5105" y1="75.4999" x2="156.569" y2="78.866" gradientUnits="userSpaceOnUse">
<stop stop-color="#4BF2A2"/>
<stop offset="0.522948" stop-color="#A89FE7"/>
<stop offset="0.669499" stop-color="#E1C4F4"/>
<stop offset="1" stop-color="#DD40CD"/>
</linearGradient>
<linearGradient id="paint4_linear_5026_4579" x1="34.3842" y1="75.5" x2="101.654" y2="76.6894" gradientUnits="userSpaceOnUse">
<stop stop-color="#4BF2A2"/>
<stop offset="0.522948" stop-color="#A89FE7"/>
<stop offset="0.669499" stop-color="#E1C4F4"/>
<stop offset="1" stop-color="#DD40CD"/>
</linearGradient>
<linearGradient id="paint5_linear_5026_4579" x1="34.3842" y1="75.5" x2="101.654" y2="76.6894" gradientUnits="userSpaceOnUse">
<stop stop-color="#4BF2A2"/>
<stop offset="0.522948" stop-color="#A89FE7"/>
<stop offset="0.669499" stop-color="#E1C4F4"/>
<stop offset="1" stop-color="#DD40CD"/>
</linearGradient>
</defs>
</svg>
