<svg width="70" height="59" viewBox="0 0 70 59" fill="none" xmlns="http://www.w3.org/2000/svg">
<g id="Group 3350">
<path id="Vector" d="M32.9264 0.150162L49.6587 0.560251L51.6935 2.21298L37.7861 3.24542L21.2023 2.50501L19.0487 1.37789L32.9264 0.150162Z" fill="url(#paint0_radial_7059_5088)" stroke="url(#paint1_radial_7059_5088)" stroke-width="0.3"/>
<g id="Union">
<mask id="path-2-inside-1_7059_5088" fill="white">
<path fill-rule="evenodd" clip-rule="evenodd" d="M0.583616 20.4799L0.583171 20.4802L0.58354 20.4798L0.583008 20.4798L0.586112 20.4771L18.526 1.27356L21.162 2.65315L21.1622 2.65291L21.1622 2.6533L21.1624 2.65338L21.1623 2.65349L22.4804 23.1332L0.583616 20.4799Z"/>
</mask>
<path fill-rule="evenodd" clip-rule="evenodd" d="M0.583616 20.4799L0.583171 20.4802L0.58354 20.4798L0.583008 20.4798L0.586112 20.4771L18.526 1.27356L21.162 2.65315L21.1622 2.65291L21.1622 2.6533L21.1624 2.65338L21.1623 2.65349L22.4804 23.1332L0.583616 20.4799Z" fill="url(#paint2_radial_7059_5088)"/>
<path d="M0.583171 20.4802L0.364049 20.2753L0.7794 20.7072L0.583171 20.4802ZM0.583616 20.4799L0.619704 20.182L0.487851 20.1661L0.387387 20.2529L0.583616 20.4799ZM0.58354 20.4798L0.802661 20.6847L1.20593 20.2535L0.619843 20.182L0.58354 20.4798ZM0.583008 20.4798L0.386581 20.253L-0.124495 20.6958L0.546705 20.7776L0.583008 20.4798ZM0.586112 20.4771L0.782539 20.7038L0.794516 20.6935L0.805334 20.6819L0.586112 20.4771ZM18.526 1.27356L18.6651 1.00776L18.4627 0.901836L18.3068 1.06876L18.526 1.27356ZM21.162 2.65315L21.0228 2.91894L21.2039 3.01368L21.3583 2.87996L21.162 2.65315ZM21.1622 2.65291L21.4616 2.63384L21.4232 2.0302L20.9659 2.4261L21.1622 2.65291ZM21.1622 2.6533L20.8629 2.67238L20.8736 2.841L21.0234 2.91922L21.1622 2.6533ZM21.1624 2.65338L21.3583 2.88061L21.693 2.59206L21.3013 2.38746L21.1624 2.65338ZM21.1623 2.65349L20.9664 2.42625L20.8533 2.52374L20.8629 2.67275L21.1623 2.65349ZM22.4804 23.1332L22.4443 23.431L22.803 23.4744L22.7798 23.1139L22.4804 23.1332ZM0.7794 20.7072L0.779845 20.7068L0.387387 20.2529L0.386941 20.2533L0.7794 20.7072ZM0.364419 20.2749L0.364049 20.2753L0.802292 20.6851L0.802661 20.6847L0.364419 20.2749ZM0.546705 20.7776L0.547237 20.7776L0.619843 20.182L0.619311 20.182L0.546705 20.7776ZM0.389686 20.2503L0.386581 20.253L0.779434 20.7065L0.782539 20.7038L0.389686 20.2503ZM18.3068 1.06876L0.36689 20.2723L0.805334 20.6819L18.7452 1.47836L18.3068 1.06876ZM21.3011 2.38735L18.6651 1.00776L18.3869 1.53936L21.0228 2.91894L21.3011 2.38735ZM20.9659 2.4261L20.9656 2.42634L21.3583 2.87996L21.3586 2.87972L20.9659 2.4261ZM21.4616 2.63423L21.4616 2.63384L20.8628 2.67199L20.8629 2.67238L21.4616 2.63423ZM21.3013 2.38746L21.3011 2.38738L21.0234 2.91922L21.0235 2.91929L21.3013 2.38746ZM21.3581 2.88072L21.3583 2.88061L20.9665 2.42614L20.9664 2.42625L21.3581 2.88072ZM22.7798 23.1139L21.4616 2.63422L20.8629 2.67275L22.181 23.1524L22.7798 23.1139ZM0.547528 20.7777L22.4443 23.431L22.5165 22.8353L0.619704 20.182L0.547528 20.7777Z" fill="url(#paint3_radial_7059_5088)" mask="url(#path-2-inside-1_7059_5088)"/>
</g>
<path id="Vector_2" d="M21.3225 2.81014L37.4922 3.53205L22.6045 22.7281L21.3225 2.81014Z" fill="url(#paint4_radial_7059_5088)" stroke="url(#paint5_radial_7059_5088)" stroke-width="0.3"/>
<path id="Vector_3" d="M22.7891 22.9799L37.8008 3.62377L56.291 22.5631L22.7891 22.9799Z" fill="url(#paint6_radial_7059_5088)" stroke="url(#paint7_radial_7059_5088)" stroke-width="0.3"/>
<path id="Vector_4" d="M38.1205 3.52151L51.9628 2.49389L56.3812 22.2258L38.1205 3.52151Z" fill="url(#paint8_radial_7059_5088)" stroke="url(#paint9_radial_7059_5088)" stroke-width="0.3"/>
<path id="Vector_5" d="M52.3396 2.80509L69.1202 19.5487L56.7558 22.5272L52.3396 2.80509Z" fill="url(#paint10_radial_7059_5088)" stroke="url(#paint11_radial_7059_5088)" stroke-width="0.3"/>
<path id="Vector_6" d="M22.3695 23.2703L34.5604 58.3381L0.959537 20.676L22.3695 23.2703Z" fill="url(#paint12_radial_7059_5088)" stroke="url(#paint13_radial_7059_5088)" stroke-width="0.3"/>
<path id="Vector_7" d="M22.69 23.2808L56.3764 22.8617L34.9846 58.6468L22.69 23.2808Z" fill="url(#paint14_radial_7059_5088)" stroke="url(#paint15_radial_7059_5088)" stroke-width="0.3"/>
<path id="Vector_8" d="M56.74 22.8398L68.9928 19.8882L35.9292 57.6529L56.74 22.8398Z" fill="url(#paint16_radial_7059_5088)" stroke="url(#paint17_radial_7059_5088)" stroke-width="0.3"/>
</g>
<defs>
<radialGradient id="paint0_radial_7059_5088" cx="0" cy="0" r="1" gradientUnits="userSpaceOnUse" gradientTransform="translate(24.2466 1.25712) rotate(11.6141) scale(29.356 118.781)">
<stop stop-color="#89EABB"/>
<stop offset="0.421875" stop-color="#9084D7"/>
<stop offset="1" stop-color="#E059D3"/>
</radialGradient>
<radialGradient id="paint1_radial_7059_5088" cx="0" cy="0" r="1" gradientUnits="userSpaceOnUse" gradientTransform="translate(24.2466 1.25712) rotate(11.6141) scale(29.356 118.781)">
<stop stop-color="#4BF2A2"/>
<stop offset="0.421875" stop-color="#564D8F"/>
<stop offset="1" stop-color="#DD40CD"/>
</radialGradient>
<radialGradient id="paint2_radial_7059_5088" cx="0" cy="0" r="1" gradientUnits="userSpaceOnUse" gradientTransform="translate(4.31621 10.2348) rotate(62.2356) scale(40.282 340.704)">
<stop stop-color="#81F0BB"/>
<stop offset="0.666667" stop-color="#AAA0E8"/>
<stop offset="1" stop-color="#EAAFFF"/>
</radialGradient>
<radialGradient id="paint3_radial_7059_5088" cx="0" cy="0" r="1" gradientUnits="userSpaceOnUse" gradientTransform="translate(4.31621 9.36621) rotate(63.746) scale(42.4208 345.314)">
<stop stop-color="#4BF2A2"/>
<stop offset="0.421875" stop-color="#564D8F"/>
<stop offset="1" stop-color="#DD40CD"/>
</radialGradient>
<radialGradient id="paint4_radial_7059_5088" cx="0" cy="0" r="1" gradientUnits="userSpaceOnUse" gradientTransform="translate(31.2996 10.6246) rotate(143.212) scale(15.0991 11.4675)">
<stop stop-color="#8877F5"/>
<stop offset="1" stop-color="#7AECB5"/>
</radialGradient>
<radialGradient id="paint5_radial_7059_5088" cx="0" cy="0" r="1" gradientUnits="userSpaceOnUse" gradientTransform="translate(23.9966 10.2349) rotate(68.2126) scale(38.3864 271.462)">
<stop stop-color="#4BF2A2"/>
<stop offset="0.421875" stop-color="#564D8F"/>
<stop offset="1" stop-color="#DD40CD"/>
</radialGradient>
<radialGradient id="paint6_radial_7059_5088" cx="0" cy="0" r="1" gradientUnits="userSpaceOnUse" gradientTransform="translate(28.3043 10.703) rotate(49.5619) scale(45.1349 457.199)">
<stop stop-color="#81F0BB"/>
<stop offset="0.421875" stop-color="#AAA0E8"/>
<stop offset="1" stop-color="#DD40CD"/>
</radialGradient>
<radialGradient id="paint7_radial_7059_5088" cx="0" cy="0" r="1" gradientUnits="userSpaceOnUse" gradientTransform="translate(28.3043 10.703) rotate(49.5619) scale(45.1349 457.199)">
<stop stop-color="#4BF2A2"/>
<stop offset="0.421875" stop-color="#564D8F"/>
<stop offset="1" stop-color="#DD40CD"/>
</radialGradient>
<radialGradient id="paint8_radial_7059_5088" cx="0" cy="0" r="1" gradientUnits="userSpaceOnUse" gradientTransform="translate(49.2846 10.2651) rotate(63.9618) scale(28.8701 23.8852)">
<stop stop-color="#8877F5"/>
<stop offset="1" stop-color="#7AECB5"/>
</radialGradient>
<radialGradient id="paint9_radial_7059_5088" cx="0" cy="0" r="1" gradientUnits="userSpaceOnUse" gradientTransform="translate(41.0026 9.87743) rotate(65.5028) scale(38.9672 301.692)">
<stop stop-color="#4BF2A2"/>
<stop offset="0.421875" stop-color="#564D8F"/>
<stop offset="1" stop-color="#DD40CD"/>
</radialGradient>
<radialGradient id="paint10_radial_7059_5088" cx="0" cy="0" r="1" gradientUnits="userSpaceOnUse" gradientTransform="translate(55.036 9.87743) rotate(67.2693) scale(38.4454 281.139)">
<stop stop-color="#89EABB"/>
<stop offset="0.421875" stop-color="#9084D7"/>
<stop offset="1" stop-color="#E059D3"/>
</radialGradient>
<radialGradient id="paint11_radial_7059_5088" cx="0" cy="0" r="1" gradientUnits="userSpaceOnUse" gradientTransform="translate(55.036 9.87743) rotate(67.2693) scale(38.4454 281.139)">
<stop stop-color="#4BF2A2"/>
<stop offset="0.421875" stop-color="#564D8F"/>
<stop offset="1" stop-color="#DD40CD"/>
</radialGradient>
<radialGradient id="paint12_radial_7059_5088" cx="0" cy="0" r="1" gradientUnits="userSpaceOnUse" gradientTransform="translate(6.44191 34.7397) rotate(66.285) scale(73.2237 553.246)">
<stop stop-color="#81F0BB"/>
<stop offset="0.421875" stop-color="#AAA0E8"/>
<stop offset="1" stop-color="#DD40CD"/>
</radialGradient>
<radialGradient id="paint13_radial_7059_5088" cx="0" cy="0" r="1" gradientUnits="userSpaceOnUse" gradientTransform="translate(6.44191 34.7397) rotate(66.285) scale(73.2237 553.246)">
<stop stop-color="#4BF2A2"/>
<stop offset="0.421875" stop-color="#564D8F"/>
<stop offset="1" stop-color="#DD40CD"/>
</radialGradient>
<radialGradient id="paint14_radial_7059_5088" cx="0" cy="0" r="1" gradientUnits="userSpaceOnUse" gradientTransform="translate(35.1867 30.7292) rotate(77.4712) scale(22.6647 34.1747)">
<stop stop-color="#81F0BB"/>
<stop offset="0.421875" stop-color="#4EAE9D"/>
<stop offset="0.760417" stop-color="#9D8FEC"/>
<stop offset="1" stop-color="#F2A6EB"/>
</radialGradient>
<radialGradient id="paint15_radial_7059_5088" cx="0" cy="0" r="1" gradientUnits="userSpaceOnUse" gradientTransform="translate(28.3043 36.1439) rotate(65.1323) scale(69.6171 545.006)">
<stop stop-color="#4BF2A2"/>
<stop offset="0.421875" stop-color="#564D8F"/>
<stop offset="1" stop-color="#DD40CD"/>
</radialGradient>
<radialGradient id="paint16_radial_7059_5088" cx="0" cy="0" r="1" gradientUnits="userSpaceOnUse" gradientTransform="translate(40.8254 34.2064) rotate(66.68) scale(74.6126 556.547)">
<stop stop-color="#89EABB"/>
<stop offset="0.421875" stop-color="#9084D7"/>
<stop offset="1" stop-color="#E059D3"/>
</radialGradient>
<radialGradient id="paint17_radial_7059_5088" cx="0" cy="0" r="1" gradientUnits="userSpaceOnUse" gradientTransform="translate(40.8254 34.2064) rotate(66.68) scale(74.6126 556.547)">
<stop stop-color="#4BF2A2"/>
<stop offset="0.421875" stop-color="#564D8F"/>
<stop offset="1" stop-color="#DD40CD"/>
</radialGradient>
</defs>
</svg>
