<svg width="26" height="26" viewBox="0 0 26 26" fill="none" xmlns="http://www.w3.org/2000/svg">
<rect width="26" height="26" fill="#151515"/>
<g clip-path="url(#clip0_6001_4739)">
<rect width="1440" height="1392" transform="translate(-256 -644)" fill="#10101B"/>
<rect x="-35.8567" y="-274.499" width="362" height="504" rx="12" fill="#161623"/>
<rect x="-35.8567" y="-274.499" width="362" height="504" rx="12" fill="#161623"/>
<mask id="mask0_6001_4739" style="mask-type:alpha" maskUnits="userSpaceOnUse" x="-36" y="-275" width="363" height="505">
<rect x="-35.8567" y="-274.499" width="362" height="504" rx="12" fill="#161623"/>
</mask>
<g mask="url(#mask0_6001_4739)">
<rect opacity="0.8" x="-350.679" y="-589.499" width="1047.2" height="847.242" rx="12" fill="url(#paint0_radial_6001_4739)"/>
</g>
<rect x="12" y="-47" width="2" height="54" rx="1" fill="#303043"/>
<rect x="12" y="18" width="2" height="55" rx="1" fill="#303043"/>
<circle cx="13" cy="13" r="12.5" fill="#1B1B29" stroke="#67677B"/>
<path d="M13.12 11.78C13.05 11.77 12.96 11.77 12.88 11.78C11.12 11.72 9.71997 10.28 9.71997 8.50998C9.71997 6.69998 11.18 5.22998 13 5.22998C14.81 5.22998 16.28 6.69998 16.28 8.50998C16.27 10.28 14.88 11.72 13.12 11.78Z" stroke="#67677B" stroke-width="1.5" stroke-linecap="round" stroke-linejoin="round"/>
<path d="M19.74 18.3801C17.96 20.0101 15.6 21.0001 13 21.0001C10.4 21.0001 8.04001 20.0101 6.26001 18.3801C6.36001 17.4401 6.96001 16.5201 8.03001 15.8001C10.77 13.9801 15.25 13.9801 17.97 15.8001C19.04 16.5201 19.64 17.4401 19.74 18.3801Z" stroke="#67677B" stroke-width="1.5" stroke-linecap="round" stroke-linejoin="round"/>
</g>
<defs>
<radialGradient id="paint0_radial_6001_4739" cx="0" cy="0" r="1" gradientUnits="userSpaceOnUse" gradientTransform="translate(-1.96613 -181.008) rotate(36.6144) scale(846.963 950.917)">
<stop stop-color="#1F343E"/>
<stop offset="0.3308" stop-color="#171B25" stop-opacity="0.71"/>
<stop offset="0.752684" stop-color="#161623"/>
</radialGradient>
<clipPath id="clip0_6001_4739">
<rect width="1440" height="1392" fill="white" transform="translate(-256 -644)"/>
</clipPath>
</defs>
</svg>
