<svg width="26" height="26" viewBox="0 0 26 26" fill="none" xmlns="http://www.w3.org/2000/svg">
<rect width="26" height="26" fill="#151515"/>
<g clip-path="url(#clip0_6001_4739)">
<rect width="1440" height="1392" transform="translate(-256 -574)" fill="#10101B"/>
<rect x="-35.8567" y="-204.499" width="362" height="504" rx="12" fill="#161623"/>
<rect x="-35.8567" y="-204.499" width="362" height="504" rx="12" fill="#161623"/>
<mask id="mask0_6001_4739" style="mask-type:alpha" maskUnits="userSpaceOnUse" x="-36" y="-205" width="363" height="505">
<rect x="-35.8567" y="-204.499" width="362" height="504" rx="12" fill="#161623"/>
</mask>
<g mask="url(#mask0_6001_4739)">
<rect opacity="0.8" x="-350.679" y="-519.499" width="1047.2" height="847.242" rx="12" fill="url(#paint0_radial_6001_4739)"/>
</g>
<rect x="12" y="-46" width="2" height="49" rx="1" fill="#274641"/>
<rect x="12" y="23" width="2" height="54" rx="1" fill="#303043"/>
<circle cx="13" cy="13" r="12.5" fill="#1B1B29" stroke="url(#paint1_linear_6001_4739)"/>
<path d="M12.3333 18H18.9999" stroke="white" stroke-width="1.5" stroke-linecap="round" stroke-linejoin="round"/>
<path d="M12.3333 13.3334H18.9999" stroke="white" stroke-width="1.5" stroke-linecap="round" stroke-linejoin="round"/>
<path d="M12.3333 8.66663H18.9999" stroke="white" stroke-width="1.5" stroke-linecap="round" stroke-linejoin="round"/>
<path d="M7 8.66671L7.66667 9.33337L9.66667 7.33337" stroke="white" stroke-width="1.5" stroke-linecap="round" stroke-linejoin="round"/>
<path d="M7 13.3333L7.66667 14L9.66667 12" stroke="white" stroke-width="1.5" stroke-linecap="round" stroke-linejoin="round"/>
<path d="M7 18L7.66667 18.6666L9.66667 16.6666" stroke="white" stroke-width="1.5" stroke-linecap="round" stroke-linejoin="round"/>
</g>
<defs>
<radialGradient id="paint0_radial_6001_4739" cx="0" cy="0" r="1" gradientUnits="userSpaceOnUse" gradientTransform="translate(-1.96613 -111.008) rotate(36.6144) scale(846.963 950.917)">
<stop stop-color="#1F343E"/>
<stop offset="0.3308" stop-color="#171B25" stop-opacity="0.71"/>
<stop offset="0.752684" stop-color="#161623"/>
</radialGradient>
<linearGradient id="paint1_linear_6001_4739" x1="-1.54545" y1="13" x2="29.3349" y2="13.728" gradientUnits="userSpaceOnUse">
<stop stop-color="#4BF2A2"/>
<stop offset="0.522948" stop-color="#A89FE7"/>
<stop offset="0.669499" stop-color="#E1C4F4"/>
<stop offset="1" stop-color="#DD40CD"/>
</linearGradient>
<clipPath id="clip0_6001_4739">
<rect width="1440" height="1392" fill="white" transform="translate(-256 -574)"/>
</clipPath>
</defs>
</svg>
