<svg width="26" height="26" viewBox="0 0 26 26" fill="none" xmlns="http://www.w3.org/2000/svg">
<rect width="26" height="26" fill="#151515"/>
<g clip-path="url(#clip0_6001_4739)">
<rect width="1440" height="1392" transform="translate(-261 -792)" fill="#10101B"/>
<path d="M-36 -400C-36 -407.732 -29.732 -414 -22 -414H312C319.732 -414 326 -407.732 326 -400V76.0001C326 83.7321 319.732 90.0001 312 90.0001H-22C-29.732 90.0001 -36 83.7321 -36 76.0001V-400Z" fill="#161623"/>
<path d="M-36 -400C-36 -407.732 -29.732 -414 -22 -414H312C319.732 -414 326 -407.732 326 -400V76.0001C326 83.7321 319.732 90.0001 312 90.0001H-22C-29.732 90.0001 -36 83.7321 -36 76.0001V-400Z" fill="#161623"/>
<mask id="mask0_6001_4739" style="mask-type:alpha" maskUnits="userSpaceOnUse" x="-36" y="-414" width="362" height="504">
<path d="M-36 -400C-36 -407.732 -29.732 -414 -22 -414H312C319.732 -414 326 -407.732 326 -400V76.0001C326 83.7321 319.732 90.0001 312 90.0001H-22C-29.732 90.0001 -36 83.7321 -36 76.0001V-400Z" fill="#161623"/>
</mask>
<g mask="url(#mask0_6001_4739)">
<rect opacity="0.8" x="-350.822" y="-729" width="1047.2" height="847.242" rx="14" fill="url(#paint0_radial_6001_4739)"/>
</g>
<rect x="12" y="-48" width="2" height="55" rx="1" fill="#274641"/>
<circle cx="13" cy="13" r="12.5" fill="#1B1B29" stroke="url(#paint1_linear_6001_4739)"/>
<path fill-rule="evenodd" clip-rule="evenodd" d="M7.8501 14.0701C7.43588 14.0701 7.1001 14.4059 7.1001 14.8201C7.1001 15.2343 7.43588 15.5701 7.8501 15.5701H16.3394L14.5798 17.3297C14.2869 17.6226 14.2869 18.0975 14.5798 18.3904C14.8727 18.6833 15.3475 18.6833 15.6404 18.3904L18.6804 15.3504C18.7621 15.2687 18.821 15.1729 18.8571 15.0709C18.8775 15.0134 18.8911 14.9527 18.8969 14.8897C18.9012 14.8434 18.9012 14.7967 18.8969 14.7504C18.8813 14.5823 18.8092 14.4185 18.6804 14.2897C18.6051 14.2144 18.5177 14.1584 18.4245 14.1218C18.3395 14.0884 18.2469 14.0701 18.1501 14.0701H18.1498H7.8501Z" fill="white"/>
<path fill-rule="evenodd" clip-rule="evenodd" d="M11.4204 8.67047C11.7133 8.37758 11.7133 7.9027 11.4204 7.60981C11.1275 7.31691 10.6527 7.31691 10.3598 7.6098L7.31977 10.6498C7.24098 10.7286 7.18338 10.8205 7.14698 10.9186C7.11668 11 7.10011 11.0881 7.1001 11.1801C7.1001 11.1801 7.1001 11.1801 7.1001 11.1802C7.1001 11.294 7.12546 11.4019 7.17085 11.4986C7.19549 11.5511 7.22656 11.6014 7.26407 11.6483C7.30273 11.6966 7.34724 11.7401 7.39654 11.7775C7.42673 11.8005 7.45827 11.8209 7.49086 11.8387C7.59754 11.897 7.71995 11.9302 7.8501 11.9302H18.1501C18.5643 11.9302 18.9001 11.5944 18.9001 11.1802C18.9001 10.766 18.5643 10.4302 18.1501 10.4302H9.66071L11.4204 8.67047Z" fill="white"/>
</g>
<defs>
<radialGradient id="paint0_radial_6001_4739" cx="0" cy="0" r="1" gradientUnits="userSpaceOnUse" gradientTransform="translate(-2.10944 -320.509) rotate(36.6144) scale(846.963 950.917)">
<stop stop-color="#1F343E"/>
<stop offset="0.3308" stop-color="#171B25" stop-opacity="0.71"/>
<stop offset="0.752684" stop-color="#161623"/>
</radialGradient>
<linearGradient id="paint1_linear_6001_4739" x1="-1.54545" y1="13" x2="29.3349" y2="13.728" gradientUnits="userSpaceOnUse">
<stop stop-color="#4BF2A2"/>
<stop offset="0.522948" stop-color="#A89FE7"/>
<stop offset="0.669499" stop-color="#E1C4F4"/>
<stop offset="1" stop-color="#DD40CD"/>
</linearGradient>
<clipPath id="clip0_6001_4739">
<rect width="1440" height="1392" fill="white" transform="translate(-261 -792)"/>
</clipPath>
</defs>
</svg>
